<?xml version="1.0" standalone="no"?>
<!DOCTYPE svg PUBLIC "-//W3C//DTD SVG 20010904//EN"
 "http://www.w3.org/TR/2001/REC-SVG-20010904/DTD/svg10.dtd">
<svg version="1.0" xmlns="http://www.w3.org/2000/svg"
 width="400.000000pt" height="400.000000pt" viewBox="0 0 400.000000 400.000000"
 preserveAspectRatio="xMidYMid meet">
<metadata>
Created by potrace 1.11, written by Peter Selinger 2001-2013
</metadata>
<g transform="translate(0.000000,400.000000) scale(0.100000,-0.100000)"
fill="#000000" stroke="none">
<path d="M1250 3987 c-3 -2 -32 -8 -65 -11 -176 -19 -354 -77 -500 -164 -126
-75 -270 -200 -346 -300 -24 -31 -46 -59 -49 -62 -15 -15 -50 -71 -50 -80 0
-5 -4 -10 -9 -10 -8 0 -17 -21 -19 -44 0 -5 -4 -12 -9 -15 -15 -10 -74 -133
-60 -125 6 4 4 -2 -6 -13 -9 -11 -14 -23 -10 -26 3 -4 1 -7 -6 -7 -7 0 -9 -4
-6 -10 3 -5 1 -10 -4 -10 -6 0 -11 -5 -11 -11 0 -5 5 -7 12 -3 7 4 3 -6 -8
-22 -27 -39 -38 -67 -21 -58 8 6 8 3 -1 -9 -8 -9 -11 -21 -7 -27 3 -5 1 -10
-4 -10 -6 0 -11 -5 -11 -11 0 -5 6 -7 12 -4 7 4 5 0 -6 -9 -12 -10 -17 -23
-14 -40 3 -14 2 -23 -2 -21 -5 3 -10 -2 -14 -10 -3 -8 0 -17 6 -21 7 -5 8 -2
3 7 -5 8 -4 10 0 6 14 -13 14 -36 0 -31 -10 4 -13 -7 -12 -44 1 -28 -1 -48 -6
-45 -4 2 -7 1 -8 -4 0 -4 -2 -16 -4 -26 -2 -9 1 -15 6 -11 5 3 6 10 3 16 -4 7
-2 8 4 4 13 -8 5 -36 -10 -36 -5 0 -6 -6 -1 -12 11 -18 13 -39 3 -33 -5 3 -11
1 -15 -5 -3 -5 1 -10 9 -10 9 0 16 -4 16 -10 0 -5 -6 -7 -13 -4 -8 3 -13 -3
-13 -15 0 -21 30 -25 53 -8 9 6 13 5 13 -3 0 -10 3 -10 15 0 13 11 14 10 9 -6
-6 -16 -5 -17 7 -6 14 13 43 17 36 4 -7 -10 135 -8 152 2 10 6 12 5 7 -2 -4
-7 -1 -12 9 -12 9 0 14 4 11 8 -3 5 1 9 9 9 8 0 12 -4 10 -8 -3 -4 2 -10 11
-13 11 -4 15 -2 11 8 -6 15 9 16 30 3 20 -13 54 -17 48 -6 -4 5 -1 9 4 9 6 0
11 -4 11 -10 0 -12 22 -9 32 5 5 6 8 5 8 -4 0 -11 3 -11 15 -1 9 7 18 10 22 6
3 -3 1 -6 -6 -6 -7 0 -9 -5 -6 -11 5 -7 14 -4 26 7 11 9 22 14 26 11 3 -4 1
-7 -5 -7 -7 0 -12 -4 -12 -10 0 -12 22 -9 33 5 4 6 11 4 17 -5 9 -13 10 -13
10 0 0 9 3 11 8 5 4 -5 18 -11 32 -13 19 -1 22 0 10 8 -12 7 -10 9 7 7 12 0
19 -5 17 -9 -8 -13 11 -9 25 5 8 7 11 7 8 1 -4 -7 2 -14 14 -17 14 -4 19 -1
16 7 -3 7 1 13 9 13 7 0 11 -4 9 -8 -3 -4 8 -9 25 -11 19 -3 27 -1 23 6 -4 6
0 5 9 -2 14 -11 17 -10 21 5 4 17 5 17 6 0 1 -14 9 -18 39 -17 20 0 55 -1 77
-3 22 -2 46 1 53 6 8 6 12 6 12 -2 0 -6 7 -11 15 -11 8 0 15 6 15 13 0 8 4 7
10 -3 8 -12 13 -13 30 -2 23 14 42 16 20 2 -12 -8 -8 -10 15 -11 17 0 42 -2
57 -3 20 -2 25 1 21 13 -4 12 -1 12 10 -2 21 -25 48 -28 72 -8 17 14 18 14 7
0 -10 -14 -6 -18 30 -30 24 -7 50 -21 59 -29 9 -8 26 -22 37 -30 11 -9 22 -22
24 -30 2 -8 8 -20 14 -26 6 -7 9 -26 8 -43 -1 -17 2 -33 7 -36 8 -5 -19 -63
-43 -92 -5 -7 -35 -22 -66 -34 -66 -25 -112 -26 -432 -15 -118 4 -258 9 -310
11 -341 12 -481 17 -523 20 -47 3 -54 -3 -48 -39 1 -5 -5 -6 -14 -3 -20 8 -19
-1 3 -21 9 -10 13 -14 8 -9 -16 12 -29 8 -19 -5 6 -7 11 -20 11 -28 0 -8 3
-28 6 -45 2 -16 5 -36 5 -42 1 -7 5 -13 10 -13 5 0 7 12 5 27 -3 15 -2 25 1
22 11 -12 15 -59 5 -59 -5 0 -10 -7 -10 -15 0 -8 6 -15 14 -15 8 0 18 -5 22
-12 5 -8 2 -9 -9 -5 -11 4 -17 1 -17 -9 0 -8 4 -13 8 -10 4 2 7 -7 7 -22 -1
-15 2 -31 5 -37 9 -13 34 -98 32 -107 -1 -3 5 -12 13 -18 9 -8 15 -8 15 -2 0
6 -6 13 -12 15 -10 4 -10 6 -1 6 20 2 27 -21 10 -34 -18 -13 -13 -25 10 -25 8
0 11 5 7 12 -5 7 -3 8 6 3 10 -6 10 -11 -3 -20 -22 -16 -22 -26 1 -18 15 6 16
5 2 -12 -14 -17 -13 -18 2 -12 10 3 20 1 24 -5 4 -6 3 -8 -4 -4 -22 13 -23
-16 -3 -55 12 -22 21 -46 21 -54 0 -8 9 -15 19 -15 12 0 23 -9 27 -22 4 -13
12 -26 18 -30 8 -5 7 -8 -2 -8 -7 0 -17 11 -22 25 -5 14 -14 25 -19 25 -5 0
18 -54 51 -120 36 -74 65 -120 74 -120 8 0 12 5 9 10 -4 6 -10 8 -14 6 -4 -3
-8 5 -8 17 -2 21 -1 21 17 -3 10 -14 17 -27 14 -29 -2 -2 1 -10 7 -17 7 -8 6
-14 -2 -20 -8 -5 -9 -3 -4 6 6 9 4 11 -4 5 -9 -5 -10 -10 -2 -18 7 -7 15 -6
26 3 8 7 15 8 15 2 0 -5 -8 -13 -17 -17 -17 -6 -16 -8 3 -23 11 -10 19 -22 17
-28 -2 -7 6 -10 20 -9 20 3 25 -2 25 -23 l0 -25 -15 24 c-8 14 -12 16 -9 6 3
-10 6 -23 6 -28 0 -5 7 -9 16 -9 8 0 12 -4 9 -10 -3 -5 -1 -10 4 -10 6 0 11
-6 11 -14 0 -23 16 -27 17 -6 1 11 -2 22 -8 25 -5 4 -9 11 -9 18 0 6 7 2 15
-9 8 -12 12 -33 9 -48 -2 -14 0 -26 6 -26 5 0 10 5 10 10 0 6 5 10 12 10 9 0
9 -3 0 -12 -17 -17 -15 -28 4 -28 9 0 12 5 8 13 -4 6 -3 8 1 4 16 -14 14 -36
-3 -29 -19 7 -14 0 45 -64 17 -19 28 -34 25 -34 -4 0 -2 -4 4 -8 5 -4 18 -18
27 -31 14 -21 17 -22 23 -8 6 16 8 15 25 -4 11 -13 17 -30 13 -41 -6 -20 11
-25 20 -5 3 6 4 3 1 -8 -5 -20 45 -85 66 -85 5 0 9 -7 9 -16 0 -8 4 -13 9 -10
5 3 12 -1 15 -10 3 -9 11 -12 18 -8 8 5 9 2 5 -9 -3 -10 -2 -17 3 -17 4 0 26
-17 48 -37 83 -78 105 -94 116 -83 13 13 26 13 26 -1 0 -5 -4 -7 -10 -4 -5 3
-10 -1 -10 -9 0 -8 23 -30 50 -48 28 -18 50 -36 50 -41 0 -4 4 -6 10 -2 5 3 6
13 3 22 -6 15 -5 16 9 3 11 -11 12 -17 4 -22 -8 -5 -7 -11 3 -20 8 -7 11 -8 8
-2 -4 7 0 15 9 18 8 3 13 2 9 -3 -8 -14 6 -42 17 -35 6 4 5 10 -3 15 -8 5 -9
9 -3 9 6 0 23 -9 38 -21 14 -11 30 -18 36 -14 6 3 7 -1 4 -10 -6 -14 -10 -13
-30 6 -13 12 -26 20 -29 17 -8 -8 44 -48 61 -48 8 0 14 -4 14 -9 0 -5 7 -11
15 -15 19 -7 15 14 -5 32 -13 11 -11 11 8 2 13 -7 21 -14 18 -17 -3 -3 -1 -14
5 -25 7 -13 17 -18 31 -15 11 3 17 3 14 0 -8 -9 26 -32 47 -33 12 0 16 4 11
12 -5 10 -3 10 7 0 12 -11 12 -14 -1 -22 -12 -8 -11 -10 6 -10 11 0 29 -6 40
-14 17 -13 22 -12 39 2 11 9 14 10 8 2 -19 -21 -16 -35 4 -19 9 8 14 9 10 3
-8 -14 46 -41 156 -78 64 -22 82 -24 100 -14 20 10 21 10 8 -5 -11 -15 -11
-17 2 -17 8 0 24 -3 34 -6 16 -5 16 -4 -1 10 -11 9 -15 16 -8 16 7 0 17 -9 24
-20 7 -11 19 -20 27 -20 11 0 11 3 0 18 -12 15 -12 16 2 5 9 -7 20 -9 24 -5 5
4 5 2 2 -4 -4 -7 0 -14 8 -18 8 -3 19 3 24 12 7 11 11 12 11 4 0 -7 4 -10 10
-7 6 4 7 -1 3 -12 -6 -16 -5 -17 12 -3 11 9 16 10 11 3 -7 -12 12 -18 38 -14
4 1 15 -4 24 -11 13 -11 15 -10 10 3 -4 10 -1 16 8 16 8 0 14 -5 14 -11 0 -13
59 -14 79 -2 10 6 12 5 7 -2 -8 -13 35 -17 48 -5 3 4 17 8 29 10 17 2 19 1 7
-7 -12 -8 -9 -10 13 -10 16 0 26 4 22 10 -3 5 -1 10 4 10 6 0 11 -4 11 -10 0
-5 5 -10 11 -10 5 0 8 4 5 9 -7 11 13 9 32 -2 7 -5 12 -3 12 4 0 8 4 8 15 -1
12 -10 18 -10 31 1 17 14 56 20 48 7 -3 -4 0 -8 5 -8 6 0 11 5 11 11 0 5 5 7
10 4 6 -4 17 -1 25 5 10 8 15 9 15 2 0 -6 7 -9 15 -6 8 4 13 9 10 13 -2 4 2 8
10 8 8 0 12 -4 9 -9 -3 -4 -1 -8 5 -8 5 0 11 4 13 10 3 9 34 18 71 19 11 1 15
6 11 13 -4 6 -3 8 4 4 6 -3 28 0 49 8 48 18 66 23 77 24 5 0 12 4 15 9 3 5 24
17 46 28 159 74 345 236 469 408 113 159 222 432 242 612 3 28 7 52 9 55 2 3
6 41 10 85 8 105 9 106 58 135 69 41 219 197 260 271 70 124 80 168 81 324 1
120 -2 150 -22 208 -66 196 -230 369 -455 479 -83 40 -210 87 -261 95 -54 9
-75 22 -103 65 -127 197 -355 450 -545 603 -129 104 -302 214 -449 288 -127
63 -317 135 -404 152 -22 5 -42 9 -45 10 -18 5 -122 25 -155 30 -58 8 -299 18
-305 12z m125 -103 c17 11 26 13 31 4 5 -7 3 -8 -6 -3 -9 5 -11 4 -6 -4 6 -8
12 -9 20 -2 7 6 15 9 17 7 2 -2 19 -6 37 -9 28 -5 33 -3 28 11 -5 14 -4 14 8
-1 9 -12 16 -14 21 -8 3 6 12 11 18 11 7 0 6 -4 -3 -10 -13 -8 -13 -10 2 -10
9 0 23 -3 31 -6 8 -3 22 3 32 12 17 17 17 17 10 -6 -7 -22 -6 -23 8 -12 8 7
18 9 21 4 3 -5 25 -12 48 -16 24 -4 45 -7 48 -8 3 0 29 -9 57 -19 47 -16 54
-16 61 -2 8 13 10 13 15 -1 5 -11 3 -15 -5 -10 -7 5 -8 3 -3 -5 4 -7 18 -11
31 -8 13 2 22 1 19 -3 -2 -3 30 -20 71 -37 41 -17 77 -27 80 -22 5 8 -10 13
-29 10 -5 -1 -6 3 -2 9 4 7 13 6 28 -2 12 -7 26 -11 30 -10 5 1 6 -2 2 -8 -3
-6 -11 -8 -16 -5 -5 4 -9 1 -9 -4 0 -6 9 -11 20 -11 11 0 20 -4 20 -10 0 -5 8
-10 18 -10 10 0 23 -5 30 -12 8 -8 15 -8 29 2 15 12 16 12 6 0 -13 -14 -19
-39 -7 -27 8 8 84 -32 84 -45 0 -5 5 -6 11 -3 7 5 4 14 -8 28 -18 22 -18 22 3
4 11 -9 24 -15 27 -12 4 3 3 -1 -3 -7 -15 -18 -12 -28 10 -28 11 0 20 -5 20
-10 0 -6 15 -17 33 -25 17 -8 28 -14 23 -15 -6 0 -1 -6 9 -14 11 -8 23 -12 27
-10 5 3 8 1 8 -4 0 -5 19 -22 43 -39 23 -17 58 -45 77 -62 53 -46 53 -46 77
-45 12 1 20 -2 17 -7 -4 -7 29 -30 46 -33 3 -1 4 -5 2 -10 -5 -14 20 -37 35
-32 7 3 13 1 13 -4 0 -19 -29 -10 -49 16 -23 29 -79 76 -67 55 5 -7 27 -30 49
-50 22 -20 52 -48 66 -63 13 -16 30 -28 38 -28 7 0 13 -6 13 -13 0 -8 9 -22
21 -33 17 -16 22 -16 29 -4 6 9 10 10 10 3 0 -6 -4 -14 -10 -18 -5 -3 6 -22
25 -42 19 -20 38 -34 41 -30 4 4 -7 20 -24 36 -16 16 -28 32 -25 35 10 9 63
-62 57 -77 -3 -10 15 -42 47 -84 29 -37 55 -70 57 -73 1 -2 7 2 13 10 7 11 8
7 3 -12 -4 -18 -2 -28 6 -28 6 0 8 5 4 11 -4 8 0 8 15 0 26 -14 27 -20 4 -20
-10 -1 -25 -1 -33 -2 -16 -2 -193 9 -270 16 -25 2 -92 7 -150 10 -58 4 -108 9
-111 11 -6 3 -77 -69 -119 -122 -68 -86 -186 -230 -191 -234 -3 -3 -17 -21
-32 -41 l-27 -36 47 -2 c27 -1 64 -3 83 -4 21 -2 39 3 46 12 9 11 12 12 19 1
5 -9 4 -11 -3 -6 -7 4 -12 3 -12 -3 0 -5 13 -9 29 -9 22 1 28 5 24 17 -5 12
-1 11 13 -4 21 -22 84 -34 65 -12 -7 9 -5 13 9 13 10 0 18 -3 18 -6 -2 -18 4
-21 19 -9 11 10 14 10 9 2 -5 -9 2 -13 23 -13 18 0 31 5 32 13 0 9 2 9 6 0 5
-14 35 -17 47 -6 11 11 45 13 51 3 3 -6 -1 -7 -9 -4 -9 3 -16 2 -16 -2 0 -5
26 -10 58 -11 34 -2 52 1 44 6 -11 7 -10 9 3 14 9 4 14 3 10 -3 -3 -6 1 -13
10 -17 10 -3 21 0 26 8 7 11 9 9 9 -6 0 -17 2 -17 10 -5 5 8 10 10 10 5 0 -6
14 -10 30 -10 17 -1 30 3 30 8 0 5 7 4 16 -4 13 -10 17 -10 25 2 6 10 9 10 9
2 0 -7 12 -13 28 -13 21 0 24 2 12 10 -8 5 -10 10 -4 10 5 0 16 -6 22 -12 7
-7 26 -13 43 -14 26 -2 28 0 17 15 -11 14 -11 14 3 4 9 -7 19 -10 23 -6 4 4 4
-1 0 -11 -5 -13 -4 -17 4 -12 6 4 26 0 43 -9 17 -9 28 -12 25 -7 -3 6 1 12 9
16 8 3 17 0 21 -6 4 -7 3 -8 -4 -4 -7 4 -12 4 -12 -1 1 -10 85 -53 105 -53 10
0 13 -5 9 -12 -5 -8 -2 -9 9 -5 11 4 17 1 17 -8 0 -8 2 -15 4 -15 2 0 12 -3
20 -6 12 -5 15 -2 10 12 -5 18 -5 18 6 1 6 -9 15 -15 19 -12 5 2 14 -2 20 -9
9 -11 9 -16 0 -22 -7 -4 -9 -3 -5 4 3 6 2 13 -4 17 -5 3 -10 0 -10 -7 0 -9 -3
-9 -10 2 -5 8 -10 10 -10 5 0 -18 37 -44 48 -33 6 6 12 6 17 -3 6 -8 4 -10 -5
-4 -9 6 -10 2 -5 -16 11 -36 24 -46 35 -29 6 9 10 10 10 3 0 -6 -4 -14 -9 -17
-5 -4 -3 -19 6 -37 11 -21 20 -28 31 -24 9 3 13 3 9 -1 -4 -4 -1 -14 6 -22 10
-13 9 -14 -10 -4 -21 11 -21 11 -12 -20 5 -17 6 -34 4 -37 -3 -2 3 -13 12 -24
10 -11 13 -17 7 -14 -7 4 -14 -2 -17 -14 -4 -16 -2 -19 11 -15 14 5 13 3 -2
-8 -12 -10 -17 -23 -14 -40 3 -14 2 -23 -2 -21 -4 2 -15 -14 -25 -36 -40 -89
-163 -162 -315 -187 -50 -9 -973 1 -1193 12 -63 3 -72 -5 -47 -36 11 -15 20
-31 20 -38 0 -6 5 -8 12 -4 7 4 8 3 4 -5 -9 -13 -26 -5 -26 12 0 14 -30 41
-51 45 -8 2 -3 -8 11 -21 14 -13 41 -41 60 -63 20 -21 50 -51 68 -66 18 -15
32 -31 31 -35 -1 -4 8 -13 20 -19 11 -6 18 -14 14 -17 -3 -4 1 -7 11 -7 11 0
14 -4 10 -12 -5 -7 -2 -9 9 -5 11 4 14 2 10 -9 -3 -9 1 -14 12 -14 10 0 13 -5
9 -12 -5 -7 -2 -9 9 -5 11 4 14 2 10 -9 -3 -7 0 -14 6 -14 6 0 11 5 11 10 0 6
5 10 11 10 8 0 7 -5 -2 -16 -10 -13 -8 -19 15 -41 15 -14 30 -22 33 -19 10 9
-28 46 -40 39 -6 -4 -7 -1 -2 6 5 9 18 2 46 -25 22 -21 39 -43 39 -49 0 -5 -7
-1 -15 9 -8 11 -18 16 -22 13 -3 -4 4 -18 17 -32 24 -26 64 -33 75 -15 5 8 11
8 20 0 10 -8 14 -7 18 2 3 8 6 5 6 -6 1 -20 1 -20 17 0 8 10 13 14 9 7 -4 -9
34 -13 155 -15 112 -2 159 0 156 8 -2 6 2 11 10 11 7 0 11 -4 9 -8 -3 -4 2
-10 11 -13 12 -5 15 -2 10 10 -5 13 -3 14 6 7 16 -13 69 -23 63 -12 -3 4 -1
10 5 14 5 3 10 -1 10 -9 0 -10 6 -13 15 -10 8 4 13 9 11 13 -3 4 5 7 17 8 12
0 16 -1 10 -4 -20 -7 -15 -19 7 -19 11 0 20 6 20 13 0 7 5 13 11 13 5 0 8 -4
5 -9 -4 -5 24 -11 63 -13 38 -2 67 0 65 4 -2 4 0 9 6 13 5 3 10 1 10 -6 0 -8
5 -7 17 2 11 10 14 10 9 1 -4 -7 -1 -12 9 -12 9 0 14 4 11 9 -7 11 13 9 33 -3
11 -7 13 -5 9 5 -4 10 1 15 12 15 10 0 16 -4 14 -8 -3 -4 4 -8 15 -8 12 0 21
6 21 13 0 8 4 7 10 -3 6 -9 10 -11 10 -3 0 7 7 10 17 6 12 -5 14 -3 8 7 -5 9
-4 11 4 6 6 -4 19 -2 28 6 12 9 15 9 9 1 -4 -7 -2 -13 3 -13 6 0 11 4 11 10 0
5 6 7 14 4 8 -3 27 3 42 13 21 13 26 14 19 3 -7 -12 -6 -13 6 -4 8 7 33 18 57
25 23 6 42 15 42 18 0 4 12 8 28 9 19 1 23 -1 13 -7 -8 -5 -12 -18 -8 -30 3
-12 0 -21 -6 -21 -6 0 -2 -7 9 -16 10 -8 14 -13 8 -10 -15 7 -37 -41 -23 -50
6 -4 6 -11 -2 -20 -9 -11 -8 -14 2 -14 12 0 12 -2 0 -9 -8 -5 -11 -16 -8 -25
4 -9 3 -15 -1 -15 -19 3 -26 -2 -13 -10 11 -7 10 -13 -3 -34 -12 -17 -14 -27
-6 -32 7 -4 4 -18 -10 -41 -12 -18 -19 -38 -15 -44 3 -5 1 -10 -4 -10 -6 0
-11 -4 -11 -9 0 -5 -8 -26 -17 -47 -9 -22 -16 -42 -15 -46 1 -5 -3 -8 -8 -8
-5 0 -9 -3 -8 -7 1 -5 -9 -28 -21 -53 -13 -25 -24 -47 -23 -50 0 -3 -6 -9 -14
-13 -8 -4 -14 -13 -14 -18 0 -21 -87 -126 -167 -201 -125 -119 -293 -205 -487
-250 -101 -23 -347 -33 -433 -17 -26 5 -67 12 -91 15 -24 3 -54 9 -68 14 -14
6 -38 12 -55 15 -139 25 -420 156 -604 283 -142 98 -203 150 -355 302 -132
131 -156 158 -231 255 -49 64 -169 241 -169 249 0 3 -12 22 -26 43 -40 60
-140 266 -140 289 0 15 5 20 18 16 10 -2 16 -8 13 -11 -2 -4 3 -8 11 -8 8 0
13 5 11 12 -3 6 5 12 16 13 17 1 19 -1 7 -8 -8 -5 -13 -10 -10 -11 3 0 13 -2
22 -4 10 -2 18 0 18 5 0 4 7 10 14 13 9 4 13 1 10 -6 -3 -8 4 -13 16 -13 11 0
20 4 20 8 0 4 5 8 11 8 5 0 8 -4 5 -9 -8 -12 27 -8 36 4 5 6 8 4 8 -5 0 -13 1
-13 10 0 6 10 10 11 10 3 0 -7 5 -13 11 -13 5 0 7 5 4 10 -3 6 -1 10 4 10 6 0
11 -4 11 -10 0 -5 5 -10 11 -10 5 0 7 5 4 10 -3 6 -1 10 4 10 6 0 11 -4 11
-10 0 -5 5 -10 11 -10 5 0 7 6 3 13 -6 9 -4 9 7 0 16 -15 33 -17 24 -3 -3 6
-2 10 4 10 5 0 11 -6 14 -12 3 -10 9 -10 27 0 12 8 19 9 15 3 -4 -7 4 -11 20
-11 14 0 24 4 21 8 -3 5 1 9 9 9 8 0 12 -4 9 -9 -3 -4 2 -8 11 -8 9 0 14 4 11
9 -7 10 20 9 30 -2 4 -4 17 -7 29 -7 18 0 70 -49 97 -92 5 -9 10 -8 21 1 11 9
17 9 22 1 4 -6 4 -14 1 -17 -3 -4 -6 0 -6 7 0 11 -3 11 -12 2 -8 -8 -2 -22 26
-57 21 -25 42 -45 47 -45 6 0 8 -4 5 -9 -8 -12 20 -34 33 -27 5 3 7 -2 4 -13
-3 -12 5 -26 23 -40 14 -11 24 -21 20 -21 -4 0 7 -14 24 -30 17 -17 27 -30 23
-30 -4 0 0 -5 10 -11 9 -5 17 -17 17 -24 0 -8 9 -15 20 -15 11 0 19 -3 19 -7
-4 -23 4 -31 31 -35 24 -4 30 -1 25 10 -4 11 0 11 21 -3 21 -14 26 -14 22 -3
-4 8 0 15 8 15 7 0 11 -4 8 -9 -5 -7 164 -11 436 -8 63 1 119 5 125 11 5 5 19
9 32 9 13 0 23 3 23 8 -1 13 -366 391 -474 490 l-46 42 27 11 c194 78 307 183
365 339 32 86 39 170 24 288 -24 198 -199 380 -453 471 -144 53 -322 81 -597
96 -41 2 -108 6 -148 10 -83 6 -156 11 -313 21 -60 4 -121 8 -135 9 -14 2 -35
3 -47 4 l-22 1 30 88 c108 305 322 540 590 649 35 14 70 26 77 26 6 0 12 5 12
10 0 6 3 7 7 4 3 -4 17 0 31 9 13 9 21 11 18 5 -4 -6 -2 -11 3 -11 6 0 11 4
11 10 0 5 7 7 15 3 9 -3 25 3 37 13 12 11 18 13 14 7 -8 -15 3 -17 24 -3 9 6
17 5 22 -3 5 -8 8 -5 8 8 0 17 2 17 10 5 9 -13 11 -13 20 0 5 8 10 11 10 5 0
-15 63 -10 68 5 3 9 7 8 14 -4 9 -16 12 -16 33 -2z m100 6 c3 -6 -1 -7 -9 -4
-18 7 -21 14 -7 14 6 0 13 -4 16 -10z m115 -6 c0 -8 -19 -13 -24 -6 -3 5 1 9
9 9 8 0 15 -2 15 -3z m85 -22 c-3 -3 -11 0 -18 7 -9 10 -8 11 6 5 10 -3 15 -9
12 -12z m40 -2 c3 -6 -1 -7 -9 -4 -18 7 -21 14 -7 14 6 0 13 -4 16 -10z m35
-4 c0 -3 -4 -8 -10 -11 -5 -3 -10 -1 -10 4 0 6 5 11 10 11 6 0 10 -2 10 -4z
m97 -32 c-3 -3 -12 -4 -19 -1 -8 3 -5 6 6 6 11 1 17 -2 13 -5z m108 -42 c-3
-3 -11 0 -18 7 -9 10 -8 11 6 5 10 -3 15 -9 12 -12z m35 -13 c0 -6 -4 -7 -10
-4 -5 3 -10 11 -10 16 0 6 5 7 10 4 6 -3 10 -11 10 -16z m140 -54 c0 -8 -2
-15 -4 -15 -2 0 -6 7 -10 15 -3 8 -1 15 4 15 6 0 10 -7 10 -15z m45 -23 c-3
-3 -11 0 -18 7 -9 10 -8 11 6 5 10 -3 15 -9 12 -12z m54 -35 c0 -9 -2 -8 -6 1
-2 6 -10 9 -15 6 -7 -4 -8 -2 -4 5 9 13 26 5 25 -12z m145 -82 c3 -9 0 -12 -9
-9 -7 3 -16 12 -19 19 -3 9 0 12 9 9 7 -3 16 -12 19 -19z m40 -41 c3 -8 2 -12
-4 -9 -6 3 -10 10 -10 16 0 14 7 11 14 -7z m75 -39 c10 -3 22 -12 25 -20 3 -9
0 -12 -10 -8 -7 3 -14 9 -14 13 0 5 -9 11 -19 15 -11 3 -27 18 -36 33 l-17 27
26 -27 c14 -14 34 -29 45 -33z m51 -55 c0 -5 -2 -10 -4 -10 -3 0 -8 5 -11 10
-3 6 -1 10 4 10 6 0 11 -4 11 -10z m34 -16 c9 -3 13 -11 9 -17 -4 -6 0 -8 9
-5 8 4 20 3 27 -2 10 -5 9 -9 -3 -13 -9 -4 -27 4 -42 18 -28 26 -27 30 0 19z
m208 -189 c3 4 9 2 12 -3 3 -6 -2 -9 -11 -8 -9 2 -19 8 -21 14 -2 7 -8 10 -13
7 -5 -4 -6 1 -2 11 5 14 7 14 18 -5 6 -12 14 -19 17 -16z m50 -52 c-6 -2 -9
-10 -6 -15 4 -7 2 -8 -5 -4 -13 9 -5 26 12 25 9 0 8 -2 -1 -6z m132 -154 c-3
-5 -14 -4 -25 1 -24 13 -25 22 -1 13 15 -6 16 -5 2 13 -14 19 -14 19 7 0 13
-10 20 -23 17 -27z m39 -72 c-3 -4 -6 -7 -7 -5 -1 2 -8 12 -16 22 -14 18 -14
18 7 6 12 -8 19 -18 16 -23z m27 -11 c0 -3 -4 -8 -10 -11 -5 -3 -10 -1 -10 4
0 6 5 11 10 11 6 0 10 -2 10 -4z m-2756 -354 c3 -5 -1 -9 -9 -9 -8 0 -12 4 -9
9 3 4 7 8 9 8 2 0 6 -4 9 -8z m621 -32 c3 -5 1 -10 -4 -10 -6 0 -11 5 -11 10
0 6 2 10 4 10 3 0 8 -4 11 -10z m280 -20 c3 -6 -1 -7 -9 -4 -18 7 -21 14 -7
14 6 0 13 -4 16 -10z m172 -27 c0 -9 -4 -10 -14 -2 -7 6 -13 12 -13 14 0 1 6
2 13 2 8 0 14 -6 14 -14z m125 -88 c5 -11 -2 -5 -17 13 -15 18 -30 30 -34 28
-4 -3 -8 2 -8 10 0 17 43 -20 59 -51z m1233 35 c3 -5 1 -10 -4 -10 -6 0 -11 5
-11 10 0 6 2 10 4 10 3 0 8 -4 11 -10z m305 -20 c0 -5 -2 -10 -4 -10 -3 0 -8
5 -11 10 -3 6 -1 10 4 10 6 0 11 -4 11 -10z m218 -56 c5 3 15 -1 22 -9 20 -25
-31 -9 -55 17 l-20 22 22 -18 c12 -10 26 -15 31 -12z m-1730 -69 c-3 -3 -9 2
-12 12 -6 14 -5 15 5 6 7 -7 10 -15 7 -18z m1949 -132 c-4 -3 -2 -12 4 -19 7
-8 6 -14 -2 -20 -7 -4 -9 -3 -5 4 3 6 2 13 -4 17 -14 8 -13 25 2 25 6 0 8 -3
5 -7z m-3317 -317 c0 -3 -4 -8 -10 -11 -5 -3 -10 -1 -10 4 0 6 5 11 10 11 6 0
10 -2 10 -4z m13 -59 c13 -20 13 -24 1 -24 -8 0 -12 2 -9 5 2 3 0 13 -6 23
-14 27 -4 24 14 -4z m927 -97 c0 -5 -5 -10 -11 -10 -5 0 -7 5 -4 10 3 6 8 10
11 10 2 0 4 -4 4 -10z m20 -24 c0 -3 -4 -8 -10 -11 -5 -3 -10 -1 -10 4 0 6 5
11 10 11 6 0 10 -2 10 -4z m16 -15 c-3 -5 1 -11 9 -15 17 -6 20 -26 4 -26 -5
0 -8 4 -5 9 3 5 -1 12 -10 15 -13 5 -12 26 2 26 3 0 3 -4 0 -9z m-882 -78 c4
-9 4 -18 1 -21 -3 -3 -5 0 -5 7 0 7 -5 9 -12 5 -7 -4 -10 -4 -6 1 4 4 3 14 -4
22 -8 11 -7 12 5 7 8 -3 18 -13 21 -21z m970 -40 c8 -19 -18 -5 -32 17 -11 19
-11 19 8 8 11 -7 22 -18 24 -25z m771 25 c5 4 5 1 1 -6 -5 -9 -12 -9 -27 -2
-10 6 -19 13 -19 16 0 2 8 0 19 -5 10 -6 22 -7 26 -3z m25 -22 c0 -2 -7 -7
-16 -10 -8 -3 -12 -2 -9 4 6 10 25 14 25 6z m-779 -29 c-10 -9 -11 -8 -5 6 3
10 9 15 12 12 3 -3 0 -11 -7 -18z m-961 9 c0 -3 -4 -8 -10 -11 -5 -3 -10 -1
-10 4 0 6 5 11 10 11 6 0 10 -2 10 -4z m1755 -6 c3 -6 -1 -7 -9 -4 -18 7 -21
14 -7 14 6 0 13 -4 16 -10z m-754 -27 c8 -9 9 -14 2 -10 -6 4 -13 1 -16 -5 -3
-7 -4 -3 -4 10 1 26 1 26 18 5z m776 -7 c0 -8 -6 -12 -14 -9 -7 3 -10 9 -7 14
8 14 21 11 21 -5z m48 -36 c3 -6 -1 -7 -9 -4 -18 7 -21 14 -7 14 6 0 13 -4 16
-10z m-795 -22 c0 -9 4 -8 10 2 6 9 10 10 10 3 0 -19 -17 -24 -30 -8 -9 10 -9
15 -1 15 6 0 11 -6 11 -12z m-975 -16 c-3 -3 0 -11 6 -18 7 -9 6 -14 -3 -20
-7 -4 -10 -3 -5 1 4 5 0 16 -8 25 -13 15 -13 17 0 17 8 0 13 -3 10 -5z m1810
-2 c3 -6 -1 -7 -9 -4 -18 7 -21 14 -7 14 6 0 13 -4 16 -10z m-778 -17 c-4 -3
0 -15 10 -25 21 -24 12 -23 -16 1 -16 14 -18 21 -9 24 19 8 22 8 15 0z m-1008
-40 c-1 -5 -1 -15 0 -23 1 -13 2 -13 11 0 5 8 10 11 10 5 0 -5 -4 -16 -8 -23
-6 -9 -12 -5 -20 13 -15 32 -15 35 -2 35 6 0 9 -3 9 -7z m1070 -46 c8 -10 7
-14 -4 -14 -8 0 -12 4 -9 8 2 4 -2 10 -8 12 -8 4 -9 6 -2 6 6 1 17 -5 23 -12z
m46 -56 c-6 -5 -25 10 -25 20 0 5 6 4 14 -3 8 -7 12 -15 11 -17z m-1010 -71
c3 -6 -1 -7 -9 -4 -18 7 -21 14 -7 14 6 0 13 -4 16 -10z m146 -233 c-10 -9
-11 -8 -5 6 3 10 9 15 12 12 3 -3 0 -11 -7 -18z m34 -26 c0 -6 7 -16 15 -21 8
-5 11 -10 6 -10 -13 0 -46 31 -46 42 0 5 6 8 13 6 6 -3 12 -10 12 -17z m57
-68 c-6 -2 -9 -10 -6 -15 4 -7 2 -8 -5 -4 -13 9 -5 26 12 25 9 0 8 -2 -1 -6z
m118 -140 c0 -8 4 -12 9 -8 5 3 12 2 15 -3 3 -5 -2 -9 -11 -9 -9 0 -18 9 -21
19 -2 10 -8 15 -13 12 -5 -3 -8 0 -7 8 2 7 -3 12 -10 10 -8 -1 -11 2 -7 8 9
14 45 -17 45 -37z m151 -156 c-10 -9 -11 -8 -5 7 6 15 4 17 -7 11 -8 -4 -11
-5 -7 0 7 8 -31 42 -42 38 -3 -1 -6 6 -7 15 -1 13 10 7 40 -20 32 -31 38 -41
28 -51z m49 -12 c0 -2 -9 -3 -19 -2 -11 0 -18 5 -15 9 4 6 34 0 34 -7z m17
-21 c-3 -3 -12 -4 -19 -1 -8 3 -5 6 6 6 11 1 17 -2 13 -5z m62 -51 c-3 -20 2
-26 11 -13 6 9 10 10 10 3 0 -6 -4 -14 -8 -17 -13 -8 -35 11 -28 23 8 13 17
15 15 4z m51 -43 c8 -5 12 -11 10 -14 -3 -2 -14 2 -24 10 -22 15 -10 19 14 4z
m250 -155 c0 -2 -6 -5 -13 -8 -8 -3 -14 1 -14 8 0 7 6 11 14 8 7 -3 13 -6 13
-8z m50 -27 c0 -4 -4 -8 -9 -8 -6 0 -12 4 -15 8 -3 5 1 9 9 9 8 0 15 -4 15 -9z
m212 -102 c7 4 8 2 4 -5 -9 -13 -26 -5 -25 12 0 9 2 8 6 -1 2 -6 10 -9 15 -6z
m38 -10 c0 -3 -4 -8 -10 -11 -5 -3 -10 -1 -10 4 0 6 5 11 10 11 6 0 10 -2 10
-4z m60 -30 c-7 -7 -13 -7 -20 0 -6 6 -3 10 10 10 13 0 16 -4 10 -10z m60 -10
c0 -3 -4 -8 -10 -11 -5 -3 -10 -1 -10 4 0 6 5 11 10 11 6 0 10 -2 10 -4z m240
-66 c0 -5 -2 -10 -4 -10 -3 0 -8 5 -11 10 -3 6 -1 10 4 10 6 0 11 -4 11 -10z
m180 -10 c0 -5 -5 -10 -11 -10 -5 0 -7 5 -4 10 3 6 8 10 11 10 2 0 4 -4 4 -10z"/>
<path d="M2090 1249 c0 -5 5 -7 10 -4 6 3 10 8 10 11 0 2 -4 4 -10 4 -5 0 -10
-5 -10 -11z"/>
<path d="M1490 1212 c-8 -4 -25 -16 -37 -26 -17 -15 -20 -23 -11 -33 8 -10 7
-12 -4 -8 -12 5 -15 0 -12 -20 3 -34 12 -43 25 -25 8 11 9 10 4 -7 -4 -14 -2
-23 4 -23 6 0 11 5 11 11 0 8 4 8 14 0 11 -9 15 -9 19 1 4 10 6 10 6 1 1 -7 7
-13 15 -13 8 0 17 6 19 13 4 9 6 9 6 -1 1 -7 6 -10 13 -6 6 4 8 3 4 -4 -3 -5
-26 -9 -51 -7 -25 1 -43 -1 -40 -5 3 -5 -5 -16 -17 -24 -12 -9 -19 -16 -14
-16 5 0 1 -9 -9 -20 -10 -11 -13 -20 -7 -20 6 0 13 6 15 13 4 9 6 9 6 -1 1 -7
6 -10 11 -7 6 3 10 1 10 -5 0 -6 5 -8 10 -5 6 4 7 12 4 18 -5 8 -3 8 7 0 16
-15 33 -17 24 -3 -3 6 -1 10 4 10 6 0 11 -5 11 -11 0 -5 5 -7 10 -4 6 3 10 1
10 -5 0 -6 5 -8 10 -5 6 4 8 10 6 14 -3 4 1 8 9 8 8 0 12 -4 9 -9 -3 -4 0 -8
5 -8 6 0 11 5 11 12 0 6 3 9 6 5 5 -5 27 10 60 41 8 8 11 18 8 24 -4 7 -2 8 4
4 9 -5 9 -13 1 -28 -9 -16 -8 -24 5 -36 10 -11 16 -12 16 -4 0 7 7 12 15 12 8
0 15 -5 15 -11 0 -5 -4 -7 -10 -4 -5 3 -10 1 -10 -5 0 -7 12 -9 36 -4 29 5 35
4 29 -6 -5 -8 -3 -11 6 -8 8 3 13 12 11 19 -3 11 -1 12 9 2 15 -15 33 -17 24
-3 -3 5 0 7 7 5 7 -3 33 13 57 35 45 43 51 46 51 30 0 -5 -8 -10 -17 -10 -15
0 -15 -1 1 -13 17 -12 17 -15 2 -29 -14 -15 -14 -17 1 -30 9 -7 14 -8 10 -2
-4 7 0 15 9 18 8 3 12 2 9 -3 -3 -6 12 -10 32 -9 21 0 43 -1 48 -2 21 -5 29 1
15 10 -12 8 -10 10 9 10 13 0 30 8 37 18 13 16 15 15 33 -8 17 -22 79 -41 67
-21 -3 4 1 8 8 8 8 0 12 -6 9 -14 -3 -7 0 -13 6 -13 6 0 11 5 11 11 0 6 8 8
18 5 25 -8 94 52 97 84 1 14 3 37 4 52 1 21 5 26 18 21 12 -5 14 -3 9 8 -5 8
-2 8 6 -2 7 -9 20 -15 29 -14 10 2 15 -5 15 -21 0 -12 -4 -20 -8 -18 -4 3 -8
-24 -8 -59 0 -60 2 -65 20 -60 11 3 20 9 20 13 0 5 8 11 18 14 14 5 18 16 17
54 -2 64 8 98 28 94 15 -2 57 41 57 59 0 5 -39 9 -88 9 -75 0 -90 -3 -105 -20
-9 -11 -17 -25 -17 -32 0 -21 -13 1 -14 24 -1 31 -45 39 -53 9 -3 -11 -9 -19
-13 -16 -4 3 -10 -4 -13 -15 -3 -11 -2 -22 3 -25 4 -2 5 -17 2 -31 -3 -18 -1
-25 6 -20 6 3 9 -1 8 -11 -3 -19 -40 -32 -69 -25 -26 7 -34 30 -33 100 2 58 0
62 -21 62 -24 0 -42 -25 -38 -53 2 -9 -1 -15 -6 -11 -10 6 -12 -29 -2 -40 4
-3 8 -15 10 -26 3 -22 -38 -34 -98 -28 l-34 3 0 78 0 77 -28 0 c-15 0 -26 -4
-22 -9 3 -6 -3 -14 -12 -20 -14 -8 -15 -10 -3 -11 13 0 13 -2 1 -9 -10 -6 -21
-1 -37 18 -20 23 -30 26 -90 28 -68 2 -68 2 -106 -39 -34 -37 -51 -67 -30 -54
5 3 9 -1 9 -8 0 -9 -10 -7 -35 6 -19 9 -39 15 -43 12 -5 -3 -6 2 -3 10 3 9 12
16 20 16 16 0 45 40 38 52 -6 10 -142 10 -164 0z m93 -70 c-4 -10 -9 -10 -22
0 -9 7 -17 13 -19 14 -2 1 8 1 21 0 15 0 23 -6 20 -14z m201 6 c-3 -4 -1 -8 5
-8 5 0 12 6 14 13 3 6 6 3 7 -8 l1 -20 15 20 c16 19 16 19 10 -5 -7 -25 -7
-25 10 -5 13 15 15 16 11 3 -3 -9 -3 -19 1 -21 4 -2 2 -2 -5 -1 -20 5 -24 -13
-5 -21 15 -6 15 -8 -6 -25 -15 -13 -32 -17 -55 -13 -40 6 -49 14 -53 48 -2 20
3 29 18 33 15 3 16 7 6 13 -9 6 -6 8 9 6 12 0 19 -5 17 -9z m-244 -8 c12 -7
10 -9 -8 -7 -12 0 -22 5 -22 9 0 11 12 10 30 -2z m400 -20 c0 -5 -5 -10 -11
-10 -5 0 -7 5 -4 10 3 6 8 10 11 10 2 0 4 -4 4 -10z m-332 -44 c-2 -1 -12 -8
-23 -16 -18 -14 -19 -13 -8 1 7 9 10 19 6 23 -4 4 1 4 10 0 10 -3 17 -7 15 -8z
m527 -26 c-3 -5 -1 -10 6 -10 7 0 10 -3 6 -6 -9 -9 -28 6 -22 17 4 5 8 9 11 9
3 0 2 -4 -1 -10z m-444 -33 c-10 -9 -11 -8 -5 6 3 10 9 15 12 12 3 -3 0 -11
-7 -18z m484 -17 c-3 -5 -12 -10 -18 -10 -7 0 -6 4 3 10 19 12 23 12 15 0z
m260 0 c3 -5 1 -10 -4 -10 -6 0 -11 5 -11 10 0 6 2 10 4 10 3 0 8 -4 11 -10z"/>
<path d="M2590 1206 c0 -8 -5 -16 -12 -18 -8 -3 -12 -37 -13 -104 -1 -96 0
-100 21 -102 12 -1 25 5 28 14 3 8 10 12 16 9 6 -4 10 7 11 27 l0 33 12 -34
c10 -27 20 -36 52 -45 51 -14 91 -14 88 0 -1 6 4 11 12 11 8 0 11 -5 8 -10 -4
-6 10 2 31 18 20 15 41 35 46 44 6 11 9 12 10 3 0 -7 4 -11 8 -8 5 3 9 -1 9
-9 0 -8 -5 -11 -10 -8 -5 3 -8 0 -5 -8 2 -7 19 -14 36 -16 31 -4 37 2 33 35
-3 23 24 51 39 41 13 -7 12 -9 -2 -9 -26 0 -22 -23 7 -48 31 -27 39 -28 25 -3
-5 11 -10 23 -10 28 1 4 7 -3 15 -17 8 -16 10 -29 4 -36 -6 -8 -4 -14 5 -17
17 -7 30 8 22 22 -4 5 3 7 13 4 22 -6 31 14 33 71 1 20 8 42 17 48 9 7 13 8 9
4 -4 -5 -2 -16 5 -25 11 -14 10 -15 -7 -1 -18 14 -19 13 -13 -3 4 -10 7 -21 7
-23 0 -10 29 -3 33 9 4 10 6 10 6 0 1 -7 6 -13 12 -13 5 0 7 6 3 13 -6 9 -5 9
7 0 12 -10 18 -10 29 0 10 9 11 9 5 -1 -5 -9 -2 -12 8 -10 9 2 15 -1 14 -7 -1
-5 -6 -8 -12 -6 -20 7 -75 7 -75 0 0 -4 -6 -14 -12 -21 -51 -55 -51 -55 -11
-56 20 -1 43 4 52 11 9 8 12 8 8 1 -5 -8 7 -12 38 -11 25 0 45 4 45 9 0 4 3 7
8 6 20 -6 52 25 57 56 9 44 -9 76 -40 76 -16 0 -25 6 -25 15 0 8 6 15 14 15
14 0 46 36 46 52 0 5 -35 8 -79 8 -64 0 -83 -4 -105 -21 -14 -11 -26 -29 -26
-39 0 -10 -4 -21 -8 -24 -5 -3 -8 3 -8 12 0 63 -4 72 -29 72 -14 0 -24 -3 -24
-7 1 -5 1 -17 0 -28 -1 -17 -3 -18 -11 -5 -11 16 -13 9 -11 -30 2 -23 -2 -20
-41 23 -24 26 -48 47 -55 47 -7 0 -22 -13 -33 -28 l-22 -29 -28 29 c-24 23
-37 28 -80 28 -28 0 -60 -5 -70 -10 -38 -20 -67 -57 -63 -81 2 -19 1 -21 -7
-9 -5 8 -10 34 -10 58 0 38 -2 42 -25 42 -15 0 -25 -6 -25 -14z m227 -57 c6
-6 9 -18 6 -25 -3 -8 0 -21 7 -30 8 -9 10 -18 4 -24 -12 -12 -63 -15 -90 -6
-21 7 -37 46 -25 64 11 16 42 22 61 12 11 -6 21 -6 25 -1 3 5 -3 12 -12 14
-14 4 -14 5 -2 6 8 0 20 -4 26 -10z m98 2 c-3 -5 -1 -12 5 -16 13 -8 13 -25
-1 -25 -5 0 -8 4 -4 9 3 5 1 12 -5 16 -10 6 -5 25 6 25 3 0 3 -4 -1 -9z m328
-4 c3 -8 -1 -14 -8 -14 -7 0 -11 6 -8 14 3 7 6 13 8 13 2 0 5 -6 8 -13z m28
-10 c-10 -9 -11 -8 -5 6 3 10 9 15 12 12 3 -3 0 -11 -7 -18z m-424 -22 c0 -8
-4 -12 -9 -9 -5 3 -6 10 -3 15 9 13 12 11 12 -6z m71 -46 c-3 -8 -7 -3 -11 10
-4 17 -3 21 5 13 5 -5 8 -16 6 -23z m373 4 c13 -16 12 -17 -3 -4 -17 13 -22
21 -14 21 2 0 10 -8 17 -17z m-616 -32 c3 -5 2 -12 -3 -15 -5 -3 -9 1 -9 9 0
17 3 19 12 6z m345 -1 c0 -5 -2 -10 -4 -10 -3 0 -8 5 -11 10 -3 6 -1 10 4 10
6 0 11 -4 11 -10z m-300 -35 c4 3 14 -3 21 -12 12 -15 12 -16 -1 -8 -8 6 -19
10 -24 10 -5 0 -10 6 -12 13 -1 7 0 8 3 2 2 -5 8 -8 13 -5z m-125 -5 c3 -6 -1
-7 -9 -4 -18 7 -21 14 -7 14 6 0 13 -4 16 -10z m660 -8 c-3 -3 -11 0 -18 7 -9
10 -8 11 6 5 10 -3 15 -9 12 -12z"/>
<path d="M2100 1180 c0 -5 5 -10 11 -10 5 0 7 5 4 10 -3 6 -8 10 -11 10 -2 0
-4 -4 -4 -10z"/>
<path d="M2100 1101 c0 -6 4 -12 8 -15 5 -3 9 1 9 9 0 8 -4 15 -9 15 -4 0 -8
-4 -8 -9z"/>
<path d="M3435 1049 c-4 -6 -5 -12 -2 -15 2 -3 7 2 10 11 7 17 1 20 -8 4z"/>
<path d="M2895 990 c3 -5 16 -10 27 -10 26 0 16 13 -13 17 -12 2 -18 -1 -14
-7z"/>
<path d="M680 825 c0 -18 19 -40 26 -32 4 4 0 15 -9 24 -9 10 -17 13 -17 8z"/>
</g>
</svg>
