<?xml version="1.0" encoding="utf-8"?>
<!-- Generator: Adobe Illustrator 16.0.0, SVG Export Plug-In . SVG Version: 6.00 Build 0)  -->
<!DOCTYPE svg PUBLIC "-//W3C//DTD SVG 1.1//EN" "http://www.w3.org/Graphics/SVG/1.1/DTD/svg11.dtd">
<svg version="1.1" id="Capa_1" xmlns="http://www.w3.org/2000/svg" xmlns:xlink="http://www.w3.org/1999/xlink" x="0px" y="0px"
	 width="204.623px" height="204.242px" viewBox="0 0 204.623 204.242" enable-background="new 0 0 204.623 204.242"
	 xml:space="preserve">
<g>
	<defs>
		<rect id="SVGID_1_" width="204.623" height="204.242"/>
	</defs>
	<clipPath id="SVGID_2_">
		<use xlink:href="#SVGID_1_"  overflow="visible"/>
	</clipPath>
	<g clip-path="url(#SVGID_2_)">
		<defs>
			<rect id="SVGID_3_" width="204.623" height="204.242"/>
		</defs>
		<clipPath id="SVGID_4_">
			<use xlink:href="#SVGID_3_"  overflow="visible"/>
		</clipPath>
		<g opacity="0.6" clip-path="url(#SVGID_4_)">
			<g>
				<defs>
					<rect id="SVGID_5_" y="1.355" width="203.117" height="202.887"/>
				</defs>
				<clipPath id="SVGID_6_">
					<use xlink:href="#SVGID_5_"  overflow="visible"/>
				</clipPath>
				<path clip-path="url(#SVGID_6_)" d="M80.408,147.805h-4.497c-0.295,0-0.518-0.057-0.66-0.173
					c-0.145-0.116-0.215-0.314-0.215-0.604c0-0.285,0.07-0.481,0.215-0.592c0.142-0.108,0.365-0.163,0.66-0.163h5.734l1.642-2.866
					h-7.176c-0.627,0-1.165,0.087-1.615,0.253c-0.446,0.16-0.814,0.393-1.101,0.688c-0.282,0.293-0.492,0.657-0.628,1.076
					c-0.137,0.423-0.205,0.894-0.205,1.413c0,0.464,0.064,0.896,0.187,1.283c0.123,0.389,0.314,0.724,0.568,1.002
					c0.256,0.271,0.579,0.485,0.965,0.641c0.385,0.153,0.846,0.232,1.382,0.232h4.498c0.304,0,0.525,0.057,0.664,0.178
					c0.141,0.122,0.209,0.325,0.209,0.611c0,0.282-0.068,0.487-0.209,0.612c-0.139,0.131-0.36,0.191-0.664,0.191h-6.253
					l-1.642,2.833h7.697c0.623,0,1.162-0.085,1.609-0.249c0.45-0.163,0.819-0.4,1.107-0.709c0.29-0.305,0.498-0.686,0.631-1.131
					c0.131-0.455,0.197-0.956,0.197-1.519c0-1.007-0.266-1.763-0.789-2.266C82.191,148.051,81.42,147.805,80.408,147.805"/>
				<path clip-path="url(#SVGID_6_)" d="M90.425,143.229c-2.016,0-3.528,0.452-4.535,1.365c-1,0.91-1.503,2.35-1.503,4.312
					c0,1.976,0.5,3.42,1.499,4.329c1.001,0.91,2.516,1.368,4.539,1.368c2.018,0,3.529-0.458,4.534-1.368
					c1.006-0.909,1.507-2.354,1.507-4.329c0-1.962-0.505-3.401-1.514-4.312C93.943,143.682,92.434,143.229,90.425,143.229
					 M93.736,150.349c-0.123,0.364-0.322,0.653-0.596,0.858c-0.278,0.211-0.638,0.352-1.084,0.425
					c-0.446,0.068-0.989,0.107-1.631,0.107c-0.639,0-1.186-0.039-1.632-0.107c-0.443-0.073-0.801-0.214-1.081-0.425
					c-0.274-0.205-0.472-0.494-0.597-0.858c-0.123-0.369-0.185-0.849-0.185-1.442c0-0.592,0.062-1.071,0.185-1.438
					c0.125-0.367,0.323-0.654,0.597-0.861c0.28-0.199,0.638-0.336,1.081-0.41c0.446-0.069,0.993-0.107,1.632-0.107
					c0.642,0,1.185,0.038,1.631,0.107c0.446,0.074,0.806,0.211,1.084,0.41c0.274,0.207,0.473,0.494,0.596,0.861
					c0.124,0.366,0.186,0.846,0.186,1.438C93.922,149.5,93.86,149.979,93.736,150.349"/>
				<polygon clip-path="url(#SVGID_6_)" points="100.32,143.407 97.762,143.407 97.762,154.422 105.062,154.422 106.723,151.589 
					100.32,151.589 				"/>
				<path clip-path="url(#SVGID_6_)" d="M115.735,149.618c0,0.382-0.041,0.708-0.13,0.983c-0.087,0.274-0.228,0.501-0.423,0.678
					c-0.196,0.171-0.464,0.3-0.79,0.378c-0.33,0.077-0.744,0.114-1.238,0.114c-0.656,0-1.193-0.035-1.604-0.11
					c-0.414-0.068-0.733-0.188-0.959-0.364c-0.228-0.166-0.379-0.387-0.466-0.662c-0.081-0.271-0.122-0.618-0.122-1.017v-6.211
					h-2.544v6.211c0,0.831,0.109,1.556,0.327,2.175c0.219,0.622,0.56,1.141,1.026,1.555c0.465,0.421,1.053,0.732,1.772,0.939
					c0.718,0.214,1.57,0.316,2.568,0.316c3.435,0,5.154-1.665,5.154-4.985v-6.211h-2.573V149.618z"/>
				<polygon clip-path="url(#SVGID_6_)" points="118.976,146.273 122.854,146.273 122.854,154.422 125.407,154.422 125.407,146.273 
					128.36,146.273 130.017,143.406 120.629,143.406 				"/>
				<rect x="130.834" y="143.406" clip-path="url(#SVGID_6_)" width="2.555" height="11.015"/>
				<path clip-path="url(#SVGID_6_)" d="M140.762,143.229c-2.012,0-3.528,0.452-4.531,1.365c-1.004,0.91-1.505,2.35-1.505,4.312
					c0,1.976,0.497,3.42,1.501,4.329c0.998,0.91,2.513,1.368,4.535,1.368c2.02,0,3.53-0.458,4.538-1.368
					c1.002-0.909,1.506-2.354,1.506-4.329c0-1.962-0.507-3.401-1.513-4.312C144.281,143.682,142.771,143.229,140.762,143.229
					 M144.078,150.349c-0.126,0.364-0.327,0.653-0.601,0.858c-0.278,0.211-0.638,0.352-1.084,0.425
					c-0.439,0.068-0.987,0.107-1.632,0.107c-0.64,0-1.184-0.039-1.628-0.107c-0.443-0.073-0.804-0.214-1.081-0.425
					c-0.275-0.205-0.479-0.494-0.598-0.858c-0.125-0.369-0.186-0.849-0.186-1.442c0-0.592,0.061-1.071,0.186-1.438
					c0.119-0.367,0.322-0.654,0.598-0.861c0.277-0.199,0.638-0.336,1.081-0.41c0.444-0.069,0.988-0.107,1.628-0.107
					c0.645,0,1.192,0.038,1.632,0.107c0.446,0.074,0.806,0.211,1.084,0.41c0.273,0.207,0.475,0.494,0.601,0.861
					c0.123,0.366,0.185,0.846,0.185,1.438C144.263,149.5,144.201,149.979,144.078,150.349"/>
				<path clip-path="url(#SVGID_6_)" d="M155.55,149.878l-5.064-6.058c-0.206-0.254-0.387-0.414-0.551-0.483
					c-0.159-0.071-0.316-0.107-0.474-0.107c-0.183,0-0.357,0.036-0.527,0.111c-0.167,0.077-0.316,0.203-0.442,0.364
					c-0.127,0.164-0.23,0.378-0.309,0.644c-0.08,0.26-0.118,0.571-0.118,0.933v9.141h2.32v-6.471l5.069,6.059
					c0.196,0.252,0.372,0.414,0.534,0.481c0.161,0.073,0.326,0.112,0.49,0.112c0.177,0,0.355-0.039,0.527-0.116
					c0.176-0.08,0.326-0.2,0.456-0.371c0.123-0.173,0.228-0.385,0.306-0.652c0.08-0.259,0.116-0.573,0.116-0.938v-9.119h-2.334
					V149.878z"/>
				<path clip-path="url(#SVGID_6_)" d="M167.052,147.805h-4.498c-0.297,0-0.515-0.057-0.659-0.173
					c-0.147-0.116-0.215-0.314-0.215-0.604c0-0.285,0.067-0.481,0.215-0.592c0.145-0.108,0.362-0.163,0.659-0.163h5.733l1.644-2.866
					h-7.177c-0.627,0-1.165,0.087-1.611,0.253c-0.452,0.16-0.82,0.393-1.102,0.688c-0.284,0.293-0.495,0.657-0.63,1.076
					c-0.138,0.423-0.202,0.894-0.202,1.413c0,0.464,0.061,0.896,0.184,1.283c0.123,0.389,0.313,0.724,0.568,1.002
					c0.253,0.271,0.576,0.485,0.962,0.641c0.388,0.153,0.849,0.232,1.385,0.232h4.496c0.309,0,0.527,0.057,0.668,0.178
					c0.139,0.122,0.209,0.325,0.209,0.611c0,0.282-0.07,0.487-0.209,0.612c-0.141,0.131-0.359,0.191-0.668,0.191h-6.251
					l-1.642,2.833h7.696c0.623,0,1.16-0.085,1.61-0.249c0.45-0.163,0.82-0.4,1.109-0.709c0.283-0.305,0.494-0.686,0.628-1.131
					c0.13-0.455,0.196-0.956,0.196-1.519c0-1.007-0.263-1.763-0.789-2.266C168.835,148.051,168.063,147.805,167.052,147.805"/>
				<path clip-path="url(#SVGID_6_)" d="M199.229,84.963c-2.596-4.881-6.202-9.165-10.82-12.867
					c-4.619-3.724-10.106-6.755-16.506-9.094c-3.363-1.245-6.918-2.216-10.63-2.949c-0.678-1.067-1.366-2.129-2.082-3.185
					C125.407,6.924,67.622-12.989,30.126,12.371C17.542,20.882,8.866,33.43,4.139,48.215H4.132
					c-0.014,0.046-0.022,0.091-0.036,0.136c-1.158,3.643-2.08,7.418-2.754,11.306c-0.022,0.13-0.04,0.257-0.063,0.387
					c-0.3,1.788-0.551,3.597-0.751,5.429c-0.022,0.207-0.05,0.416-0.071,0.623C0.252,68.092,0.085,70.098,0,72.137l11.667,0.505
					l48.644,2.46c4.693,0.239,8.338,1.272,10.932,3.119c2.61,1.827,3.905,4.444,3.905,7.848c0,3.05-1.421,5.392-4.292,7.034
					c-2.858,1.648-6.375,2.406-10.545,2.26l-46.339-1.62c-0.001-0.003-0.001-0.005-0.001-0.005l-0.663-0.018L1.237,93.297
					c0.006,0.023,0.01,0.048,0.014,0.07H1.225c0.218,1.427,0.513,2.865,0.786,4.301c0.096,0.507,0.173,1.014,0.278,1.524
					c0.27,1.333,0.587,2.669,0.905,4.009c0.185,0.775,0.365,1.554,0.565,2.332c0.331,1.285,0.692,2.57,1.064,3.858
					c0.239,0.821,0.492,1.646,0.75,2.466c0.401,1.286,0.809,2.569,1.253,3.855c0.064,0.177,0.113,0.354,0.175,0.534h0.021
					c3.872,11.028,9.298,22,16.389,32.479c33.787,49.941,91.569,69.864,129.065,44.499c19.115-12.928,29.212-35.149,30.095-60.428
					c2.021-1.146,3.955-2.365,5.717-3.728c4.617-3.53,8.243-7.729,10.874-12.585c2.631-4.833,3.955-10.097,3.955-15.806
					C203.116,95.058,201.813,89.825,199.229,84.963 M152.342,184.075c-33.665,22.774-86.538,3.426-118.09-43.215
					c-5.352-7.91-9.725-16.102-13.17-24.358l31.818,0.576l19.395,23.57h36.051l-16.012-16.791c-3.03-3.056-5.465-5.477-7.287-7.234
					c-1.823-1.769-3.468-3.236-4.94-4.396c3.554-0.617,6.742-1.735,9.566-3.355c2.816-1.603,5.201-3.572,7.146-5.932
					c1.964-2.336,3.452-4.982,4.502-7.94c1.031-2.947,1.559-6.089,1.559-9.418c0-6.15-1.422-11.264-4.239-15.355
					c-2.823-4.102-6.395-7.461-10.739-10.055c-4.327-2.62-9.145-4.568-14.434-5.84c-5.292-1.274-10.426-2.089-15.364-2.426
					l-43.378-2.966c3.954-14.057,11.739-25.913,23.353-33.77c33.669-22.768,86.537-3.431,118.089,43.214
					c0.202,0.3,0.392,0.603,0.588,0.903c-1.898-0.259-3.834-0.464-5.812-0.598l-25.504-1.736l-17.095,20.91l42.599,2.143
					c3.622,0.182,6.983,0.862,10.089,2.029c3.104,1.163,5.819,2.663,8.153,4.501c2.333,1.831,4.148,3.979,5.439,6.434
					c1.308,2.451,1.951,5.074,1.951,7.872c0,2.872-0.644,5.477-1.951,7.798c-1.291,2.325-3.067,4.313-5.3,5.95
					c-2.249,1.649-4.948,2.907-8.103,3.765c-3.154,0.876-6.57,1.286-10.279,1.221l-58.24-1.021l21.422,22.095h36.817
					c7.506,0,14.444-1.051,20.839-3.126c2.342-0.757,4.526-1.65,6.633-2.611C176.712,155.649,167.995,173.49,152.342,184.075"/>
			</g>
		</g>
	</g>
	<g clip-path="url(#SVGID_2_)">
		<defs>
			<path id="SVGID_7_" d="M77.617,142.051c-0.626,0-1.166,0.088-1.616,0.253c-0.445,0.161-0.814,0.395-1.1,0.689
				c-0.282,0.294-0.493,0.658-0.628,1.077c-0.137,0.423-0.205,0.894-0.205,1.413c0,0.463,0.063,0.896,0.187,1.283
				c0.122,0.389,0.314,0.723,0.568,1.001c0.255,0.272,0.578,0.486,0.965,0.642c0.385,0.152,0.846,0.232,1.382,0.232h4.498
				c0.304,0,0.525,0.057,0.664,0.177c0.14,0.123,0.208,0.326,0.208,0.612c0,0.281-0.068,0.486-0.208,0.611
				c-0.139,0.132-0.36,0.191-0.664,0.191h-6.253l-1.642,2.833h7.696c0.625,0,1.163-0.084,1.61-0.248
				c0.45-0.164,0.818-0.401,1.107-0.709c0.29-0.307,0.498-0.687,0.63-1.132c0.131-0.454,0.198-0.956,0.198-1.518
				c0-1.008-0.266-1.764-0.789-2.266c-0.528-0.499-1.3-0.745-2.312-0.745h-4.497c-0.295,0-0.517-0.056-0.659-0.172
				c-0.145-0.116-0.216-0.314-0.216-0.604c0-0.287,0.071-0.482,0.216-0.592c0.142-0.109,0.364-0.164,0.659-0.164h5.734l1.643-2.867
				H77.617z"/>
		</defs>
		<clipPath id="SVGID_8_">
			<use xlink:href="#SVGID_7_"  overflow="visible"/>
		</clipPath>
		
			<linearGradient id="SVGID_9_" gradientUnits="userSpaceOnUse" x1="0" y1="204.2422" x2="1" y2="204.2422" gradientTransform="matrix(158.9988 -161.1186 -161.1186 -158.9988 32944.9102 32664.2539)">
			<stop  offset="0" style="stop-color:#6A3106"/>
			<stop  offset="0.2331" style="stop-color:#8A4B06"/>
			<stop  offset="0.5521" style="stop-color:#FEF28E"/>
			<stop  offset="0.8405" style="stop-color:#CD9B00"/>
			<stop  offset="1" style="stop-color:#CD9B00"/>
		</linearGradient>
		<polygon clip-path="url(#SVGID_8_)" fill="url(#SVGID_9_)" points="68.266,147.632 79.319,136.432 90.521,147.485 79.468,158.687 
					"/>
	</g>
	<g clip-path="url(#SVGID_2_)">
		<defs>
			<path id="SVGID_10_" d="M90.299,150.276c-0.443-0.073-0.8-0.213-1.081-0.425c-0.275-0.205-0.472-0.494-0.598-0.857
				c-0.122-0.369-0.184-0.849-0.184-1.443c0-0.592,0.062-1.071,0.184-1.438c0.126-0.366,0.323-0.653,0.598-0.861
				c0.281-0.199,0.638-0.336,1.081-0.411c0.446-0.067,0.993-0.106,1.631-0.106c0.642,0,1.187,0.039,1.632,0.106
				c0.446,0.075,0.807,0.212,1.084,0.411c0.274,0.208,0.473,0.495,0.596,0.861c0.124,0.366,0.186,0.846,0.186,1.438
				c0,0.595-0.062,1.074-0.186,1.443c-0.123,0.363-0.322,0.652-0.596,0.857c-0.277,0.212-0.638,0.352-1.084,0.425
				c-0.445,0.068-0.99,0.106-1.632,0.106C91.292,150.383,90.745,150.345,90.299,150.276 M87.396,143.239
				c-1,0.91-1.503,2.351-1.503,4.312c0,1.976,0.5,3.419,1.499,4.33c1.001,0.91,2.516,1.367,4.538,1.367
				c2.018,0,3.53-0.457,4.535-1.367c1.006-0.911,1.507-2.354,1.507-4.33c0-1.961-0.505-3.401-1.514-4.312
				c-1.009-0.912-2.518-1.365-4.528-1.365C89.915,141.874,88.402,142.327,87.396,143.239"/>
		</defs>
		<clipPath id="SVGID_11_">
			<use xlink:href="#SVGID_10_"  overflow="visible"/>
		</clipPath>
		
			<linearGradient id="SVGID_12_" gradientUnits="userSpaceOnUse" x1="0" y1="204.2422" x2="1" y2="204.2422" gradientTransform="matrix(159.0018 -161.1216 -161.1216 -159.0018 32951.8008 32671.1113)">
			<stop  offset="0" style="stop-color:#6A3106"/>
			<stop  offset="0.2331" style="stop-color:#8A4B06"/>
			<stop  offset="0.5521" style="stop-color:#FEF28E"/>
			<stop  offset="0.8405" style="stop-color:#CD9B00"/>
			<stop  offset="1" style="stop-color:#CD9B00"/>
		</linearGradient>
		<polygon clip-path="url(#SVGID_11_)" fill="url(#SVGID_12_)" points="80.207,147.637 91.853,135.835 103.658,147.486 
			92.013,159.287 		"/>
	</g>
	<g clip-path="url(#SVGID_2_)">
		<defs>
			<polygon id="SVGID_13_" points="99.268,142.051 99.268,153.066 106.567,153.066 108.228,150.233 101.826,150.233 
				101.826,142.051 			"/>
		</defs>
		<clipPath id="SVGID_14_">
			<use xlink:href="#SVGID_13_"  overflow="visible"/>
		</clipPath>
		
			<linearGradient id="SVGID_15_" gradientUnits="userSpaceOnUse" x1="0" y1="204.2393" x2="1" y2="204.2393" gradientTransform="matrix(158.9967 -161.1164 -161.1164 -158.9967 32956.3164 32675.5703)">
			<stop  offset="0" style="stop-color:#6A3106"/>
			<stop  offset="0.2331" style="stop-color:#8A4B06"/>
			<stop  offset="0.5521" style="stop-color:#FEF28E"/>
			<stop  offset="0.8405" style="stop-color:#CD9B00"/>
			<stop  offset="1" style="stop-color:#CD9B00"/>
		</linearGradient>
		<polygon clip-path="url(#SVGID_14_)" fill="url(#SVGID_15_)" points="93.761,147.632 103.688,137.571 113.735,147.485 
			103.808,157.546 		"/>
	</g>
	<g clip-path="url(#SVGID_2_)">
		<defs>
			<path id="SVGID_16_" d="M117.241,142.051v6.213c0,0.382-0.041,0.706-0.129,0.982c-0.087,0.275-0.229,0.5-0.424,0.677
				c-0.196,0.171-0.465,0.302-0.79,0.378c-0.329,0.078-0.744,0.115-1.238,0.115c-0.657,0-1.193-0.035-1.604-0.109
				c-0.414-0.069-0.731-0.188-0.959-0.364c-0.226-0.166-0.378-0.387-0.465-0.662c-0.081-0.271-0.123-0.619-0.123-1.017v-6.213
				h-2.544v6.213c0,0.83,0.111,1.556,0.328,2.175c0.219,0.621,0.56,1.141,1.026,1.555c0.466,0.42,1.053,0.732,1.771,0.939
				c0.719,0.213,1.571,0.315,2.569,0.315c3.434,0,5.154-1.665,5.154-4.984v-6.213H117.241z"/>
		</defs>
		<clipPath id="SVGID_17_">
			<use xlink:href="#SVGID_16_"  overflow="visible"/>
		</clipPath>
		
			<linearGradient id="SVGID_18_" gradientUnits="userSpaceOnUse" x1="0" y1="204.2383" x2="1" y2="204.2383" gradientTransform="matrix(159.0036 -161.1235 -161.1235 -159.0036 32962.9727 32681.9922)">
			<stop  offset="0" style="stop-color:#6A3106"/>
			<stop  offset="0.2331" style="stop-color:#8A4B06"/>
			<stop  offset="0.5521" style="stop-color:#FEF28E"/>
			<stop  offset="0.8405" style="stop-color:#CD9B00"/>
			<stop  offset="1" style="stop-color:#CD9B00"/>
		</linearGradient>
		<polygon clip-path="url(#SVGID_17_)" fill="url(#SVGID_18_)" points="103.367,147.724 114.317,136.627 125.412,147.575 
			114.461,158.672 		"/>
	</g>
	<g clip-path="url(#SVGID_2_)">
		<defs>
			<polygon id="SVGID_19_" points="122.135,142.051 120.481,144.918 124.36,144.918 124.36,153.066 126.913,153.066 
				126.913,144.918 129.865,144.918 131.522,142.051 			"/>
		</defs>
		<clipPath id="SVGID_20_">
			<use xlink:href="#SVGID_19_"  overflow="visible"/>
		</clipPath>
		
			<linearGradient id="SVGID_21_" gradientUnits="userSpaceOnUse" x1="0" y1="204.2383" x2="1" y2="204.2383" gradientTransform="matrix(159.0025 -161.1223 -161.1223 -159.0025 32968.4727 32687.5137)">
			<stop  offset="0" style="stop-color:#6A3106"/>
			<stop  offset="0.2331" style="stop-color:#8A4B06"/>
			<stop  offset="0.5521" style="stop-color:#FEF28E"/>
			<stop  offset="0.8405" style="stop-color:#CD9B00"/>
			<stop  offset="1" style="stop-color:#CD9B00"/>
		</linearGradient>
		<polygon clip-path="url(#SVGID_20_)" fill="url(#SVGID_21_)" points="114.974,147.632 125.929,136.531 137.029,147.485 
			126.074,158.586 		"/>
	</g>
	<g clip-path="url(#SVGID_2_)">
		<defs>
			<rect id="SVGID_22_" x="132.34" y="142.051" width="2.555" height="11.016"/>
		</defs>
		<clipPath id="SVGID_23_">
			<use xlink:href="#SVGID_22_"  overflow="visible"/>
		</clipPath>
		
			<linearGradient id="SVGID_24_" gradientUnits="userSpaceOnUse" x1="0" y1="204.2422" x2="1" y2="204.2422" gradientTransform="matrix(158.9986 -161.1183 -161.1183 -158.9986 32972.2617 32691.207)">
			<stop  offset="0" style="stop-color:#6A3106"/>
			<stop  offset="0.2331" style="stop-color:#8A4B06"/>
			<stop  offset="0.5521" style="stop-color:#FEF28E"/>
			<stop  offset="0.8405" style="stop-color:#CD9B00"/>
			<stop  offset="1" style="stop-color:#CD9B00"/>
		</linearGradient>
		<polygon clip-path="url(#SVGID_23_)" fill="url(#SVGID_24_)" points="126.833,147.632 133.601,140.773 140.402,147.485 
			133.635,154.344 		"/>
	</g>
	<g clip-path="url(#SVGID_2_)">
		<defs>
			<path id="SVGID_25_" d="M140.639,150.276c-0.441-0.073-0.803-0.213-1.08-0.425c-0.274-0.205-0.478-0.494-0.598-0.857
				c-0.126-0.369-0.186-0.849-0.186-1.443c0-0.592,0.06-1.071,0.186-1.438c0.12-0.366,0.323-0.653,0.598-0.861
				c0.277-0.199,0.639-0.336,1.08-0.411c0.445-0.067,0.989-0.106,1.629-0.106c0.646,0,1.191,0.039,1.632,0.106
				c0.446,0.075,0.807,0.212,1.084,0.411c0.272,0.208,0.475,0.495,0.601,0.861c0.122,0.366,0.184,0.846,0.184,1.438
				c0,0.595-0.062,1.074-0.184,1.443c-0.126,0.363-0.328,0.652-0.601,0.857c-0.277,0.212-0.638,0.352-1.084,0.425
				c-0.44,0.068-0.986,0.106-1.632,0.106C141.628,150.383,141.084,150.345,140.639,150.276 M137.737,143.239
				c-1.004,0.91-1.505,2.351-1.505,4.312c0,1.976,0.496,3.419,1.5,4.33c0.998,0.91,2.514,1.367,4.535,1.367
				c2.02,0,3.529-0.457,4.537-1.367c1.002-0.911,1.506-2.354,1.506-4.33c0-1.961-0.507-3.401-1.513-4.312
				c-1.01-0.912-2.52-1.365-4.53-1.365C140.256,141.874,138.74,142.327,137.737,143.239"/>
		</defs>
		<clipPath id="SVGID_26_">
			<use xlink:href="#SVGID_25_"  overflow="visible"/>
		</clipPath>
		
			<linearGradient id="SVGID_27_" gradientUnits="userSpaceOnUse" x1="0" y1="204.2422" x2="1" y2="204.2422" gradientTransform="matrix(159.0041 -161.1239 -161.1239 -159.0041 32977.7813 32696.582)">
			<stop  offset="0" style="stop-color:#6A3106"/>
			<stop  offset="0.2331" style="stop-color:#8A4B06"/>
			<stop  offset="0.5521" style="stop-color:#FEF28E"/>
			<stop  offset="0.8405" style="stop-color:#CD9B00"/>
			<stop  offset="1" style="stop-color:#CD9B00"/>
		</linearGradient>
		<polygon clip-path="url(#SVGID_26_)" fill="url(#SVGID_27_)" points="130.546,147.637 142.191,135.835 153.997,147.486 
			142.352,159.287 		"/>
	</g>
	<g clip-path="url(#SVGID_2_)">
		<defs>
			<path id="SVGID_28_" d="M150.439,141.985c-0.167,0.078-0.315,0.203-0.441,0.365c-0.127,0.163-0.232,0.377-0.309,0.643
				c-0.08,0.26-0.119,0.572-0.119,0.934v9.14h2.319v-6.472l5.07,6.06c0.196,0.253,0.373,0.415,0.535,0.481
				c0.161,0.073,0.325,0.112,0.489,0.112c0.177,0,0.354-0.039,0.527-0.116c0.175-0.079,0.327-0.199,0.455-0.371
				c0.123-0.173,0.229-0.384,0.308-0.651c0.079-0.26,0.114-0.574,0.114-0.938v-9.12h-2.334v6.472l-5.063-6.058
				c-0.206-0.254-0.388-0.414-0.551-0.483c-0.158-0.07-0.316-0.107-0.474-0.107C150.785,141.874,150.61,141.911,150.439,141.985"/>
		</defs>
		<clipPath id="SVGID_29_">
			<use xlink:href="#SVGID_28_"  overflow="visible"/>
		</clipPath>
		
			<linearGradient id="SVGID_30_" gradientUnits="userSpaceOnUse" x1="0" y1="204.2412" x2="1" y2="204.2412" gradientTransform="matrix(159.0005 -161.1203 -161.1203 -159.0005 32983.2266 32702.0996)">
			<stop  offset="0" style="stop-color:#6A3106"/>
			<stop  offset="0.2331" style="stop-color:#8A4B06"/>
			<stop  offset="0.5521" style="stop-color:#FEF28E"/>
			<stop  offset="0.8405" style="stop-color:#CD9B00"/>
			<stop  offset="1" style="stop-color:#CD9B00"/>
		</linearGradient>
		<polygon clip-path="url(#SVGID_29_)" fill="url(#SVGID_30_)" points="143.884,147.637 154.414,136.965 165.075,147.486 
			154.545,158.157 		"/>
	</g>
	<g clip-path="url(#SVGID_2_)">
		<defs>
			<path id="SVGID_31_" d="M164.259,142.051c-0.626,0-1.165,0.088-1.609,0.253c-0.452,0.161-0.821,0.395-1.103,0.689
				c-0.284,0.294-0.496,0.658-0.631,1.077c-0.136,0.423-0.201,0.894-0.201,1.413c0,0.463,0.061,0.896,0.184,1.283
				c0.123,0.389,0.312,0.723,0.568,1.001c0.252,0.272,0.575,0.486,0.962,0.642c0.389,0.152,0.85,0.232,1.385,0.232h4.495
				c0.311,0,0.527,0.057,0.668,0.177c0.14,0.123,0.21,0.326,0.21,0.612c0,0.281-0.07,0.486-0.21,0.611
				c-0.141,0.132-0.357,0.191-0.668,0.191h-6.25l-1.642,2.833h7.696c0.624,0,1.161-0.084,1.61-0.248
				c0.45-0.164,0.82-0.401,1.109-0.709c0.284-0.307,0.495-0.687,0.628-1.132c0.129-0.454,0.197-0.956,0.197-1.518
				c0-1.008-0.265-1.764-0.789-2.266c-0.528-0.499-1.3-0.745-2.313-0.745h-4.498c-0.297,0-0.515-0.056-0.658-0.172
				c-0.147-0.116-0.216-0.314-0.216-0.604c0-0.287,0.068-0.482,0.216-0.592c0.144-0.109,0.361-0.164,0.658-0.164h5.734l1.643-2.867
				H164.259z"/>
		</defs>
		<clipPath id="SVGID_32_">
			<use xlink:href="#SVGID_31_"  overflow="visible"/>
		</clipPath>
		
			<linearGradient id="SVGID_33_" gradientUnits="userSpaceOnUse" x1="0" y1="204.2422" x2="1" y2="204.2422" gradientTransform="matrix(159.0021 -161.1219 -161.1219 -159.0021 32989.4844 32708.1738)">
			<stop  offset="0" style="stop-color:#6A3106"/>
			<stop  offset="0.2331" style="stop-color:#8A4B06"/>
			<stop  offset="0.5521" style="stop-color:#FEF28E"/>
			<stop  offset="0.8405" style="stop-color:#CD9B00"/>
			<stop  offset="1" style="stop-color:#CD9B00"/>
		</linearGradient>
		<polygon clip-path="url(#SVGID_32_)" fill="url(#SVGID_33_)" points="154.91,147.632 165.963,136.432 177.165,147.485 
			166.112,158.687 		"/>
	</g>
	<g clip-path="url(#SVGID_2_)">
		<defs>
			<path id="SVGID_34_" d="M109.851,139.293l-16.012-16.79c-3.029-3.056-5.464-5.477-7.286-7.235
				c-1.823-1.769-3.469-3.235-4.94-4.396c3.554-0.617,6.741-1.737,9.565-3.356c2.816-1.603,5.201-3.572,7.146-5.932
				c1.965-2.337,3.453-4.983,4.503-7.94c1.031-2.947,1.559-6.089,1.559-9.418c0-6.151-1.422-11.265-4.239-15.356
				c-2.824-4.102-6.396-7.46-10.739-10.054c-4.328-2.621-9.145-4.569-14.434-5.841c-5.292-1.274-10.426-2.088-15.365-2.425
				l-43.377-2.966c3.954-14.058,11.739-25.914,23.353-33.77c33.669-22.769,86.537-3.431,118.089,43.214
				c0.203,0.3,0.393,0.602,0.587,0.903c-1.896-0.259-3.834-0.465-5.81-0.599l-25.504-1.736l-17.097,20.91l42.601,2.144
				c3.622,0.181,6.982,0.862,10.088,2.028c3.103,1.163,5.819,2.663,8.154,4.501c2.333,1.832,4.147,3.98,5.438,6.434
				c1.309,2.451,1.951,5.074,1.951,7.873c0,2.871-0.643,5.477-1.951,7.797c-1.291,2.326-3.066,4.312-5.299,5.95
				c-2.25,1.649-4.95,2.908-8.103,3.766c-3.154,0.875-6.57,1.285-10.279,1.219l-58.24-1.02l21.421,22.095h36.819
				c7.506,0,14.442-1.05,20.839-3.125c2.34-0.758,4.526-1.651,6.632-2.611c-1.705,20.738-10.421,38.578-26.074,49.162
				c-33.665,22.776-86.538,3.428-118.091-43.213c-5.351-7.911-9.724-16.103-13.17-24.359l31.818,0.576l19.395,23.57H109.851z
				 M31.633,11.015C19.049,19.527,10.372,32.075,5.644,46.86H5.638c-0.015,0.045-0.023,0.09-0.036,0.136
				c-1.159,3.642-2.081,7.418-2.754,11.306c-0.023,0.129-0.04,0.257-0.064,0.387c-0.299,1.788-0.55,3.597-0.751,5.428
				c-0.021,0.207-0.049,0.416-0.07,0.623c-0.204,1.996-0.372,4.003-0.457,6.042l11.666,0.505l48.644,2.46
				c4.693,0.238,8.339,1.271,10.932,3.119c2.611,1.826,3.905,4.443,3.905,7.847c0,3.051-1.42,5.392-4.291,7.034
				c-2.859,1.648-6.376,2.406-10.546,2.26l-46.339-1.62c-0.001-0.002-0.001-0.004-0.001-0.004l-0.662-0.018L2.742,91.942
				c0.007,0.022,0.01,0.047,0.015,0.07H2.731c0.217,1.427,0.513,2.865,0.786,4.3c0.096,0.508,0.173,1.015,0.277,1.525
				c0.271,1.333,0.587,2.668,0.906,4.008c0.185,0.776,0.364,1.555,0.565,2.332c0.331,1.286,0.691,2.572,1.064,3.859
				c0.238,0.822,0.491,1.646,0.75,2.466c0.401,1.287,0.809,2.57,1.252,3.855c0.064,0.177,0.114,0.354,0.176,0.535h0.02
				c3.872,11.027,9.298,21.999,16.39,32.479c33.786,49.942,91.568,69.864,129.065,44.5c19.113-12.928,29.211-35.151,30.095-60.429
				c2.021-1.146,3.955-2.364,5.717-3.728c4.617-3.53,8.243-7.729,10.874-12.584c2.629-4.833,3.954-10.098,3.954-15.806
				c0-5.623-1.304-10.855-3.886-15.718c-2.598-4.881-6.202-9.165-10.821-12.866c-4.619-3.725-10.107-6.756-16.506-9.095
				c-3.363-1.244-6.918-2.216-10.63-2.948c-0.678-1.068-1.366-2.13-2.081-3.185C136.871,20.289,101.1,0.002,68.935,0
				C55.492-0.001,42.684,3.54,31.633,11.015"/>
		</defs>
		<clipPath id="SVGID_35_">
			<use xlink:href="#SVGID_34_"  overflow="visible"/>
		</clipPath>
		
			<linearGradient id="SVGID_36_" gradientUnits="userSpaceOnUse" x1="0" y1="204.2012" x2="1" y2="204.2012" gradientTransform="matrix(159.0045 -161.1244 -161.1244 -159.0045 32929.7617 32649.1719)">
			<stop  offset="0" style="stop-color:#6A3106"/>
			<stop  offset="0.2331" style="stop-color:#8A4B06"/>
			<stop  offset="0.5521" style="stop-color:#FEF28E"/>
			<stop  offset="0.8405" style="stop-color:#CD9B00"/>
			<stop  offset="1" style="stop-color:#CD9B00"/>
		</linearGradient>
		<polygon clip-path="url(#SVGID_35_)" fill="url(#SVGID_36_)" points="-111.579,105.638 101.719,-110.504 317.707,102.643 
			104.409,318.784 		"/>
	</g>
</g>
</svg>
